Coordinates
version=1
nRows=9
nColumns=63
inDegrees=yes

Units are S.I. units (second, meters, Newtons, ...)
If the header above contains a line with 'inDegrees', this indicates whether rotational values are in degrees (yes) or radians (no).

endheader
time	pelvis_tilt	pelvis_list	pelvis_rotation	pelvis_tx	pelvis_ty	pelvis_tz	hip_flexion_r	hip_adduction_r	hip_rotation_r	knee_angle_r	knee_angle_r_beta	ankle_angle_r	subtalar_angle_r	mtp_angle_r	hip_flexion_l	hip_adduction_l	hip_rotation_l	knee_angle_l	knee_angle_l_beta	ankle_angle_l	subtalar_angle_l	mtp_angle_l	L5_S1_Flex_Ext	L5_S1_Lat_Bending	L5_S1_axial_rotation	L4_L5_Flex_Ext	L4_L5_Lat_Bending	L4_L5_axial_rotation	L3_L4_Flex_Ext	L3_L4_Lat_Bending	L3_L4_axial_rotation	L2_L3_Flex_Ext	L2_L3_Lat_Bending	L2_L3_axial_rotation	L1_L2_Flex_Ext	L1_L2_Lat_Bending	L1_L2_axial_rotation	L1_T12_Flex_Ext	L1_T12_Lat_Bending	L1_T12_axial_rotation	Abs_r3	Abs_r2	Abs_r1	Abs_t1	Abs_t2	neck_flexion	neck_bending	neck_rotation	arm_flex_r	arm_add_r	arm_rot_r	elbow_flex_r	pro_sup_r	wrist_flex_r	wrist_dev_r	arm_flex_l	arm_add_l	arm_rot_l	elbow_flex_l	pro_sup_l	wrist_flex_l	wrist_dev_l
      2.00000000	     -4.25635202	     -5.39533521	     82.86831691	      0.05740500	      0.86229991	      0.72152514	      8.77813736	     -6.46083855	      0.18243563	     13.58686587	      0.23713554	     40.45059078	     14.11661393	      0.00000000	      2.94609160	      5.75203613	      0.14071688	      1.96114541	      0.03422844	     32.49822565	    -13.09635583	      0.00000000	      0.00410181	     -0.72493503	      3.14655579	      0.00761747	     -0.96416359	      3.34321552	      0.00673886	     -1.76260704	      3.34321552	      0.00468796	     -1.76260704	      2.75323631	      0.00380894	     -1.47828752	      2.55657658	      0.00234377	     -1.12292437	      2.35991684	      0.02929882	     -8.20061008	     17.50019931	      0.00000000	      0.00000000	     27.56525252	     -0.25284035	     -6.86672394	    -65.43653031	    -66.84442340	    -40.22997892	     13.81253689	     31.34223892	      0.79443766	     -4.13773305	     48.65043796	    -84.91501468	    164.77097761	      1.67532387	     86.72838423	     -5.72268917	     12.27161341
      2.01666667	     -4.44250628	     -5.29211423	     82.81022479	      0.05788839	      0.86217530	      0.72142663	      8.74288177	     -6.61617076	      0.25400107	     13.67462957	      0.23866731	     40.39710083	     13.71070173	      0.00000000	      2.81632018	      5.94217089	      0.81092452	      1.88210259	      0.03284889	     32.30925183	    -13.89470286	      0.00000000	     -0.01218257	     -0.76149524	      3.22435242	     -0.02262425	     -1.01278867	      3.42587445	     -0.02001475	     -1.85149954	      3.42587445	     -0.01392346	     -1.85149954	      2.82130837	     -0.01131274	     -1.55284110	      2.61978634	     -0.00696112	     -1.17955613	      2.41826431	     -0.08701889	     -8.61418650	     17.93288085	      0.00000000	      0.00000000	     27.49142785	     -0.02615048	     -7.62391410	    -66.64506848	    -66.65848675	    -34.12646457	     13.93541474	     24.13376152	      0.54557458	     -5.30536433	     60.15814004	    -84.54231763	    177.51525382	      2.42910472	     86.24117225	     -4.59985572	     12.53463982
      2.03333333	     -4.52068993	     -5.26776930	     82.74623665	      0.05797936	      0.86206474	      0.72159133	      8.79038827	     -6.68096868	      0.29442169	     13.74153568	      0.23983504	     40.30209151	     13.41690438	      0.00000000	      2.82345134	      6.02427073	      0.90468894	      1.90462917	      0.03324205	     32.40738661	    -13.93561050	      0.00000000	     -0.01596634	     -0.77190220	      3.22706902	     -0.02965109	     -1.02662992	      3.42876084	     -0.02623110	     -1.87680300	      3.42876084	     -0.01824793	     -1.87680300	      2.82368540	     -0.01482634	     -1.57406296	      2.62199358	     -0.00912317	     -1.19567650	      2.42030177	     -0.11404596	     -8.73191203	     17.94798979	      0.00000000	      0.00000000	     27.44249029	      0.03329384	     -7.66728117	    -66.45698477	    -66.23034288	    -35.58899859	     14.17060405	     25.25256409	      0.35104390	     -5.63389629	     61.79476677	    -84.66655256	    176.32415480	      2.39881643	     86.17321285	     -4.80818132	     12.17871906
      2.05000000	     -4.58859714	     -5.25750964	     82.73105221	      0.05804537	      0.86196505	      0.72180103	      8.84289062	     -6.75038717	      0.21854125	     13.81782423	      0.24116653	     40.26348888	     13.32229745	      0.00000000	      2.84248528	      6.09650365	      1.28675135	      1.90645710	      0.03327395	     32.42691351	    -14.29361917	      0.00000000	     -0.02025908	     -0.77819590	      3.23038408	     -0.03762313	     -1.03500055	      3.43228309	     -0.03328364	     -1.89210551	      3.43228309	     -0.02315410	     -1.89210551	      2.82658607	     -0.01881258	     -1.58689708	      2.62468707	     -0.01157604	     -1.20542545	      2.42278806	     -0.14470857	     -8.80310767	     17.96642715	      0.00000000	      0.00000000	     27.39874876	      0.02998624	     -7.58502120	    -66.91996210	    -65.82053960	    -35.79952130	     14.53160939	     24.31668675	      0.37803859	     -6.02723613	     63.36361987	    -84.82599410	    173.62033877	      2.29418390	     85.71490721	     -6.18087904	     11.24738821
      2.06666667	     -4.66528064	     -5.22975982	     82.71042311	      0.05819500	      0.86191233	      0.72185142	      8.84516941	     -6.82348892	      0.17940295	     13.83454519	      0.24145836	     40.28230123	     13.28271273	      0.00000000	      2.82888862	      6.17247325	      1.38340151	      1.90269109	      0.03320822	     32.57219117	    -14.31081852	      0.00000000	     -0.02101662	     -0.78627406	      3.21606686	     -0.03902996	     -1.04574449	      3.41707104	     -0.03452820	     -1.91174674	      3.41707104	     -0.02401989	     -1.91174674	      2.81405850	     -0.01951603	     -1.60337006	      2.61305432	     -0.01200890	     -1.21793851	      2.41205015	     -0.15011960	     -8.89448938	     17.88679906	      0.00000000	      0.00000000	     27.29108941	     -0.01596877	     -7.34308294	    -66.84212591	    -65.58539495	    -35.95553809	     14.60835048	     24.10094267	      0.39549845	     -6.04138380	     63.70385725	    -84.87674441	    173.19161495	      2.16812249	     85.39472693	     -6.15245013	     11.23286664
      2.08333333	     -4.77795653	     -5.23436833	     82.95578528	      0.05772382	      0.86186268	      0.72193573	      8.83638045	     -7.03086296	     -0.34229200	     13.86765402	      0.24203622	     40.46738181	     13.64842642	      0.00000000	      2.87540849	      6.31176774	      1.93899684	      1.94016560	      0.03386228	     32.38096578	    -14.78558868	      0.00000000	     -0.02742760	     -0.79358164	      3.20346442	     -0.05093579	     -1.05546358	      3.40368094	     -0.04506080	     -1.92951439	      3.40368094	     -0.03134700	     -1.92951439	      2.80303137	     -0.02546927	     -1.61827167	      2.60281484	     -0.01567213	     -1.22925796	      2.40259831	     -0.19591259	     -8.97715419	     17.81670806	      0.00000000	      0.00000000	     27.32668433	     -0.20190128	     -7.41057792	    -67.74371588	    -64.78936611	    -39.00060529	     15.55810089	     23.66096992	      0.47711425	     -5.12049615	     65.52474727	    -84.89830256	    169.27867858	      2.14378308	     85.06645501	     -7.81518668	      9.73711023
      2.10000000	     -4.76987034	     -5.17474350	     82.97831577	      0.05742851	      0.86188725	      0.72173519	      8.72414148	     -7.07922899	     -0.52904606	     13.79240914	      0.24072295	     40.57100896	     13.83493345	      0.00000000	      2.80880406	      6.32593080	      1.87557023	      1.96214356	      0.03424587	     32.40446655	    -14.81462673	      0.00000000	     -0.03311318	     -0.78707213	      3.19771823	     -0.06149448	     -1.04680594	      3.39757562	     -0.05440164	     -1.91368718	      3.39757562	     -0.03784505	     -1.91368718	      2.79800345	     -0.03074890	     -1.60499749	      2.59814606	     -0.01892087	     -1.21917473	      2.39828867	     -0.23652411	     -8.90351737	     17.78474948	      0.00000000	      0.00000000	     27.30811670	     -0.21126110	     -7.23662564	    -68.16959289	    -64.60372800	    -40.67167032	     16.12452741	     23.51709648	      0.11825156	     -4.29164980	     64.55856381	    -85.01418988	    165.93504124	      2.08949381	     85.38402500	     -8.82506970	      9.22048770
      2.11666667	     -4.71690961	     -5.13531781	     82.94937544	      0.05678512	      0.86190158	      0.72139883	      8.63541777	     -7.11912734	     -0.74227807	     13.73124635	      0.23965546	     40.72668153	     14.11378949	      0.00000000	      2.73027902	      6.31258909	      1.52184719	      1.95008487	      0.03403540	     32.45169192	    -14.53261327	      0.00000000	     -0.03382119	     -0.76905457	      3.21478930	     -0.06280934	     -1.02284258	      3.41571364	     -0.05556484	     -1.86987928	      3.41571364	     -0.03865424	     -1.86987928	      2.81294064	     -0.03140636	     -1.56825608	      2.61201631	     -0.01932543	     -1.19126553	      2.41109198	     -0.24158139	     -8.69969912	     17.87969367	      0.00000000	      0.00000000	     27.28774199	     -0.39197829	     -7.02789415	    -68.79365340	    -64.50369130	    -43.30337931	     16.66164245	     24.56845680	      0.07102456	     -3.33487682	     62.58293728	    -84.81562590	    164.12256559	      1.99237241	     85.45674817	     -8.33587799	      9.38610765
      2.13333333	     -4.70680628	     -5.14607271	     82.98743224	      0.05658577	      0.86194823	      0.72105860	      8.60772025	     -7.14099474	     -0.74957794	     13.72154612	      0.23948616	     40.75443864	     14.10644489	      0.00000000	      2.71361173	      6.30554902	      1.51478808	      1.95957835	      0.03420109	     32.42409921	    -14.52914831	      0.00000000	     -0.02660172	     -0.76986066	      3.22195997	     -0.04940205	     -1.02391468	      3.42333246	     -0.04370396	     -1.87183921	      3.42333246	     -0.03040310	     -1.87183921	      2.81921497	     -0.02470235	     -1.56989986	      2.61784247	     -0.01520022	     -1.19251416	      2.41646997	     -0.19001341	     -8.70881777	     17.91957474	      0.00000000	      0.00000000	     27.31762813	     -0.38504198	     -7.04792377	    -68.78932000	    -64.71331665	    -43.34043068	     16.69309886	     24.56021975	      0.07140962	     -3.35629908	     62.58691701	    -84.74700358	    164.11972564	      1.93687481	     85.45841395	     -8.35077152	      9.39469088
